<?xml version="1.0" encoding="UTF-8" standalone="no"?>
<svg
   width="93.547"
   height="80"
   viewBox="0 0 93.547 80"
   version="1.1"
   id="svg1"
   sodipodi:docname="logo-mage-agri-blanc.svg"
   inkscape:version="1.3.2 (091e20ef0f, 2023-11-25, custom)"
   xmlns:inkscape="http://www.inkscape.org/namespaces/inkscape"
   xmlns:sodipodi="http://sodipodi.sourceforge.net/DTD/sodipodi-0.dtd"
   xmlns="http://www.w3.org/2000/svg"
   xmlns:svg="http://www.w3.org/2000/svg">
  <sodipodi:namedview
     id="namedview1"
     pagecolor="#ffffff"
     bordercolor="#666666"
     borderopacity="1.0"
     inkscape:showpageshadow="2"
     inkscape:pageopacity="0.0"
     inkscape:pagecheckerboard="0"
     inkscape:deskcolor="#d1d1d1"
     inkscape:zoom="10.425"
     inkscape:cx="46.76259"
     inkscape:cy="40"
     inkscape:window-width="1920"
     inkscape:window-height="1032"
     inkscape:window-x="0"
     inkscape:window-y="20"
     inkscape:window-maximized="1"
     inkscape:current-layer="logo-mage-agri-blanc" />
  <defs
     id="defs1">
    <clipPath
       id="clip-path">
      <path
         id="Rectangle_569"
         d="M0 0H93.547V80H0z"
         class="cls-1" />
    </clipPath>
    <clipPath
       id="clip-path-3">
      <path
         id="Rectangle_566"
         d="M0 0H8.204V14.037H0z"
         class="cls-1" />
    </clipPath>
    <style
       id="style1">
            .cls-1{fill:none}.cls-2{clip-path:url(#clip-path)}.cls-3{fill:#fff}.cls-4{fill:#96bd0d}
        </style>
  </defs>
  <g
     id="logo-mage-agri-blanc"
     transform="translate(46.773 40)">
    <g
       id="Groupe_814"
       class="cls-2"
       transform="translate(-46.773 -40)"
       clip-path="url(#clip-path)">
      <g
         id="Groupe_813"
         class="cls-2"
         clip-path="url(#clip-path)">
        <path
           id="Tracé_1365"
           d="M22.411 37.9a3 3 0 0 1 1.7 1 2.7 2.7 0 0 1 .7 1.8v24.914h-6.1V53.008l-3.5 7.9a2.8 2.8 0 0 1-1.1 1.2 3.1 3.1 0 0 1-1.6.4 3.1 3.1 0 0 1-1.6-.4 2.9 2.9 0 0 1-1.1-1.2l-3.7-7.9v12.606H0V40.6a2.6 2.6 0 0 1 .7-1.8 3 3 0 0 1 1.7-1A5.7 5.7 0 0 1 5 38a2.9 2.9 0 0 1 1.4 1.3l6 12.606 6-12.506a2.8 2.8 0 0 1 1.4-1.3 5.4 5.4 0 0 1 2.6-.2"
           class="cls-3"
           transform="translate(0 .019)"
           style="stroke:none;fill:#000000" />
        <path
           id="Tracé_1366"
           d="M34.1 65.614h-6.3L37.6 39.6a3 3 0 0 1 1.1-1.2 2.9 2.9 0 0 1 1.6-.5 3 3 0 0 1 1.6.5 2.8 2.8 0 0 1 1.1 1.2l9.9 26.013h-6.5l-6.2-16.008z"
           class="cls-3"
           transform="translate(.014 .019)"
           style="stroke:none;fill:#000000" />
        <path
           id="Tracé_1367"
           d="M66.407 59.711v-7.5h6.2v13.403h-9.2q-10.707 0-10.707-13.807T63.405 38h9.3v6h-6.5q-7.1 0-7.1 6.5v3q0 6.3 6.9 6.3z"
           class="cls-3"
           transform="translate(.026 .019)"
           style="stroke:none;fill:#000000" />
        <path
           id="Tracé_1368"
           d="M93.509 65.614H80.9q-5.2 0-5.2-5.6V43q0-5 5.2-5h12.609v5.9H82v4.9h9.6v5.9H82v4.9h11.509z"
           class="cls-3"
           transform="translate(.038 .019)"
           style="stroke:none;fill:#000000" />
        <path
           id="Tracé_1369"
           d="M46.808 0L31.7 8.7v8.7L46.808 26v8.7L61.816 26V8.7z"
           class="cls-4"
           transform="translate(.016)" />
        <path
           id="Tracé_1370"
           fill="#7ab41d"
           d="M31.7 8.7l15.108 17.309L31.7 17.4z"
           transform="translate(.016 .004)" />
        <g
           id="Groupe_812"
           opacity="0.5"
           transform="translate(42.721 6.203)">
          <g
             id="Groupe_811"
             clip-path="url(#clip-path-3)">
            <path
               id="Tracé_1371"
               d="M50.7 13.4l-.2-.2H50a3.1 3.1 0 0 0 .7-3.1l-.2-.2a3.2 3.2 0 0 0-2 0 3.3 3.3 0 0 0 .1-.8 3.1 3.1 0 0 0-1.7-2.8h-.3A3.1 3.1 0 0 0 44.9 9a3.3 3.3 0 0 0 .1.8 3.2 3.2 0 0 0-2 0l-.2.2a3.1 3.1 0 0 0 .7 3.1H43l-.2.2a3.1 3.1 0 0 0 .8 3.1 3 3 0 0 0 2.2.9h.6v2.4a.4.4 0 1 0 .7 0v-2.3h.6a3 3 0 0 0 2.2-.9 3.1 3.1 0 0 0 .8-3.1m-4.3 2.9a2.3 2.3 0 0 1-.1.4 2.4 2.4 0 0 1-2.9-2.9 2.5 2.5 0 0 1 1.3.1h.1l.9.6a2.3 2.3 0 0 1 .7 1.6zm0-3.4a2.3 2.3 0 0 1-.1.4 2.4 2.4 0 0 1-1.2 0H45l-.8-.6a2.4 2.4 0 0 1-.7-2.2 2.4 2.4 0 0 1 2.2.7h.1a2.3 2.3 0 0 1 .6 1.4zm.4-1.8l-.4-.4h-.1a2.3 2.3 0 0 1-.6-1.7 2.4 2.4 0 0 1 1.1-2 2.4 2.4 0 0 1 1.1 2 2.3 2.3 0 0 1-.5 1.5l-.2.2-.4.3m.4 1.7a2.3 2.3 0 0 1 .6-1.5l.2-.2a2.4 2.4 0 0 1 2.2-.6 2.4 2.4 0 0 1-.7 2.2l-.8.6h-.2a2.4 2.4 0 0 1-1.2 0 2.5 2.5 0 0 1-.1-.5zm2.2 3.3a2.4 2.4 0 0 1-2.2.7 2.4 2.4 0 0 1 .7-2.2l.8-.6h.2a2.4 2.4 0 0 1 1.2-.1 2.4 2.4 0 0 1-.7 2.2"
               class="cls-3"
               transform="translate(-42.7 -6.2)" />
          </g>
        </g>
        <path
           id="Tracé_1372"
           d="M34.5 78.4l-.6 1.5h-2.3l3.6-9.6.4-.5.6-.2.6.2.4.5 3.6 9.6h-2.4l-.6-1.5zm2.5-2.2l-.8-2.2-.8 2.2z"
           class="cls-4"
           transform="translate(.016 .035)" />
        <path
           id="Tracé_1373"
           d="M45.8 77.8V75h2.3v4.9h-3.4q-3.9 0-3.9-5.1t3.9-5.1h3.4V72h-2.4q-2.6 0-2.6 2.4v1.1q0 2.3 2.5 2.3z"
           class="cls-4"
           transform="translate(.02 .035)" />
        <path
           id="Tracé_1374"
           d="M51.5 71.9V80h-2.3V69.8h5.3a2.5 2.5 0 0 1 1.8.7 2.4 2.4 0 0 1 .7 1.9 2.7 2.7 0 0 1-.8 1.9l-.9 1.1a.7.7 0 0 0-.1.7l2.2 3.9h-2.7L53 76.6a1.7 1.7 0 0 1 0-2l1.7-2a.8.8 0 0 0 .2-.5.265.265 0 0 0-.3-.3z"
           class="cls-4"
           transform="translate(.025 .035)" />
        <path
           id="Rectangle_567"
           d="M0 0H2.301V10.215H0z"
           class="cls-4"
           transform="translate(58.629 69.835)" />
      </g>
    </g>
  </g>
</svg>
